kopru_ayakbilegi
version=1
nRows=10
nColumns=53
inDegrees=yes
endheader
time	sacrum_pitch	sacrum_roll	sacrum_yaw	sacrum_x	sacrum_y	sacrum_z	sacroiliac_flx	hip_flx	hip_add	hip_int	knee_flx	ankle_flx	ankle_add	ankle_int	BFa.activation	BFp.activation	CF.activation	STp.activation	STa.activation	SM.activation	QF.activation	TFL.activation	GMa.activation	GMe.activation	GMi.activation	Pir.activation	GP.activation	GA.activation	AL.activation	AM.activation	AB.activation	Pec.activation	IP.activation	OE.activation	OI.activation	GS.activation	GI.activation	RF.activation	VL.activation	VI.activation	VM.activation	MG.activation	LG.activation	Pla.activation	Sol.activation	TA.activation	EDL.activation	TP.activation	FDL.activation	FHL.activation	Per.activation	Pop.activation
0.302100	20.633716	0.000000	0.000000	0.000000	0.050000	0.000000	3.700000	39.941851	-10.000000	0.000000	-125.456028	5.728807	-5.000000	0.000000	0.000000	0.000000	0.000000	0.000000	0.000000	0.000000	0.000000	0.000000	0.000000	0.000000	0.000000	0.000000	0.000000	0.000000	0.000000	0.000000	0.000000	0.000000	0.000000	0.000000	0.000000	0.000000	0.000000	0.000000	0.000000	0.000000	0.000000	0.179928	0.179503	0.203927	0.443756	0.005415	0.008364	0.206595	0.206106	0.206106	0.008326	0.000000
0.307050	20.633716	0.000000	0.000000	0.000000	0.050000	0.000000	3.700000	39.941851	-10.000000	0.000000	-125.456028	3.832151	-5.000000	0.000000	0.000000	0.000000	0.000000	0.000000	0.000000	0.000000	0.000000	0.000000	0.000000	0.000000	0.000000	0.000000	0.000000	0.000000	0.000000	0.000000	0.000000	0.000000	0.000000	0.000000	0.000000	0.000000	0.000000	0.000000	0.000000	0.000000	0.000000	0.162945	0.162560	0.184678	0.401869	0.195596	0.315860	0.187094	0.186651	0.186651	0.315825	0.000000
0.312000	20.633716	0.000000	0.000000	0.000000	0.050000	0.000000	3.700000	39.941851	-10.000000	0.000000	-125.456028	2.463190	-5.000000	0.000000	0.000000	0.000000	0.000000	0.000000	0.000000	0.000000	0.000000	0.000000	0.000000	0.000000	0.000000	0.000000	0.000000	0.000000	0.000000	0.000000	0.000000	0.000000	0.000000	0.000000	0.000000	0.000000	0.000000	0.000000	0.000000	0.000000	0.000000	0.147564	0.147215	0.167246	0.363935	0.177133	0.286045	0.169434	0.169033	0.169033	0.286014	0.000000
0.316950	20.633716	0.000000	0.000000	0.000000	0.050000	0.000000	3.700000	39.941851	-10.000000	0.000000	-125.456028	1.362972	-5.000000	0.000000	0.000000	0.000000	0.000000	0.000000	0.000000	0.000000	0.000000	0.000000	0.000000	0.000000	0.000000	0.000000	0.000000	0.000000	0.000000	0.000000	0.000000	0.000000	0.000000	0.000000	0.000000	0.000000	0.000000	0.000000	0.000000	0.000000	0.000000	0.133635	0.133319	0.151459	0.329583	0.361702	0.583485	0.153441	0.153077	0.153077	0.583457	0.000000
0.321900	20.633716	0.000000	0.000000	0.000000	0.050000	0.000000	3.700000	39.941851	-10.000000	0.000000	-125.456028	0.755811	-5.000000	0.000000	0.000000	0.000000	0.000000	0.000000	0.000000	0.000000	0.000000	0.000000	0.000000	0.000000	0.000000	0.000000	0.000000	0.000000	0.000000	0.000000	0.000000	0.000000	0.000000	0.000000	0.000000	0.000000	0.000000	0.000000	0.000000	0.000000	0.000000	0.121021	0.120735	0.137162	0.298473	0.327560	0.528409	0.138957	0.138628	0.138628	0.528383	0.000000
0.326850	20.633716	0.000000	0.000000	0.000000	0.050000	0.000000	3.700000	39.941851	-10.000000	0.000000	-125.456028	0.231548	-5.000000	0.000000	0.000000	0.000000	0.000000	0.000000	0.000000	0.000000	0.000000	0.000000	0.000000	0.000000	0.000000	0.000000	0.000000	0.000000	0.000000	0.000000	0.000000	0.000000	0.000000	0.000000	0.000000	0.000000	0.000000	0.000000	0.000000	0.000000	0.000000	0.109598	0.109339	0.124215	0.270299	0.296641	0.478531	0.125841	0.125543	0.125543	0.478508	0.000000
0.331800	20.633716	0.000000	0.000000	0.000000	0.050000	0.000000	3.700000	39.941851	-10.000000	0.000000	-125.456028	-0.212854	-5.000000	0.000000	0.000000	0.000000	0.000000	0.000000	0.000000	0.000000	0.000000	0.000000	0.000000	0.000000	0.000000	0.000000	0.000000	0.000000	0.000000	0.000000	0.000000	0.000000	0.000000	0.000000	0.000000	0.000000	0.000000	0.000000	0.000000	0.000000	0.000000	0.099252	0.099018	0.112490	0.244785	0.268640	0.433362	0.113962	0.113692	0.113692	0.433341	0.000000
0.336750	20.633716	0.000000	0.000000	0.000000	0.050000	0.000000	3.700000	39.941851	-10.000000	0.000000	-125.456028	-0.579911	-5.000000	0.000000	0.000000	0.000000	0.000000	0.000000	0.000000	0.000000	0.000000	0.000000	0.000000	0.000000	0.000000	0.000000	0.000000	0.000000	0.000000	0.000000	0.000000	0.000000	0.000000	0.000000	0.000000	0.000000	0.000000	0.000000	0.000000	0.000000	0.000000	0.089884	0.089671	0.101872	0.221679	0.243283	0.392456	0.103205	0.102961	0.102961	0.392437	0.000000
0.341700	20.633716	0.000000	0.000000	0.000000	0.050000	0.000000	3.700000	39.941851	-10.000000	0.000000	-125.456028	-0.940775	-5.000000	0.000000	0.000000	0.000000	0.000000	0.000000	0.000000	0.000000	0.000000	0.000000	0.000000	0.000000	0.000000	0.000000	0.000000	0.000000	0.000000	0.000000	0.000000	0.000000	0.000000	0.000000	0.000000	0.000000	0.000000	0.000000	0.000000	0.000000	0.000000	0.081399	0.081207	0.092256	0.200755	0.220319	0.355411	0.093463	0.093242	0.093242	0.355394	0.000000
0.346650	20.633716	0.000000	0.000000	0.000000	0.050000	0.000000	3.700000	39.941851	-10.000000	0.000000	-125.456028	-1.294042	-5.000000	0.000000	0.000000	0.000000	0.000000	0.000000	0.000000	0.000000	0.000000	0.000000	0.000000	0.000000	0.000000	0.000000	0.000000	0.000000	0.000000	0.000000	0.000000	0.000000	0.000000	0.000000	0.000000	0.000000	0.000000	0.000000	0.000000	0.000000	0.000000	0.073716	0.073542	0.083548	0.181805	0.199523	0.321863	0.084641	0.084441	0.084441	0.321848	0.000000
